<svg xmlns="http://www.w3.org/2000/svg" version="1.1" xmlns:xlink="http://www.w3.org/1999/xlink" xmlns:svgjs="http://svgjs.dev/svgjs" width="1500" height="1500" viewBox="0 0 1500 1500"><rect width="1500" height="1500" fill="#ffffff"></rect><g transform="matrix(0.6666666666666666,0,0,0.6666666666666666,248.44244080996884,189.33333333333348)"><svg viewBox="0 0 321 360" data-background-color="#000000" preserveAspectRatio="xMidYMid meet" height="1682" width="1500" xmlns="http://www.w3.org/2000/svg" xmlns:xlink="http://www.w3.org/1999/xlink"><g id="tight-bounds" transform="matrix(1,0,0,1,0.5000234999999975,0)"><svg viewBox="0 0 320 360" height="360" width="320"><g><svg></svg></g><g><svg viewBox="0 0 320 360" height="360" width="320"><g><path transform="translate(-74.99272,-51.79039) scale(4.65793,4.65793)" d="M20.6 59.9l0.8 1-0.4-1.3c-0.1-0.6-0.8 0.1-0.4 0.3M21.5 59.3c0.3 0.5 0.6 1 0.6 1.5 0 0.7 0.6 1 1.1 1.2-0.7-0.8-1.1-3-1.7-2.7M59.9 16.9c1.7 0 3.3-0.2 5.1 0.2 4.4 1.1 8.1 3.3 10.6 6.4l7 11.2c0.3 2.8 0.9 5.9 0.8 9.3 0.7 0 0.6-1 1.4-1.2-0.8 2-1.2 4.5-1.4 7.4-0.5-1.6 0-4 0.1-5.3-0.7 1.1-1.1 0.3-1.1-0.2 0.1-0.8-0.3-0.7-0.6-1-1.1-1-1.8-2.1-2.6-3.8 0.5-1.3 0.6-3.2-1-4.2-0.5-0.3-1.1-0.8-1.4-1.6-0.4-1.1-1.1-2.4-0.9-4.1 0.1-0.5-1.5 1.1-2.4 0.4-3.9-2.7-7.8-5.8-12.5-8.4-2.5 0-4.3-0.9-5.2-2-0.8-1-0.2-2.3 1-2.4 0.7 0 1.5-0.2 2.1 0.2 0.1-0.4 0.5-0.9 1-0.9M50 14.6l0.2 0.1c1 0.2 1.5 1.6 2.6 1.1 0 0.7 0.1 1.4-0.1 1.9-0.3 0.8-1.2 0.8-1.9 0.8-6.7-0.4-10.6 2.4-14.7 4.8-1.1 0.7-2.3 1.2-3.2 2.1-4.3 4-9 7.7-10.1 15.1l-0.9 8.2c-0.1 0.9-1.1 1.8-0.9 2.9l0.7 4.9c-0.7-0.7-1.1 0.2-0.9 0.6 0.1 0.3 0.5 1.3 1.1 0.4 0.8 1.5 1.6 4.4 2.7 5.7 3.4 4 7.8 7.6 11.4 11.2 0.9-0.2 1.6-0.2 1.8-0.8 0.3 0.6-0.3 1.2-0.8 1.3 1.6 1 3.4 1.9 5.8 2.1 3.1 0.2 6 0.7 8.7 1.4 1.4-0.4 2.8-0.6 4.3-0.7 0.5 0 0.8-0.8 1.4-1l0.1-1c0.6 0.9 0.5-0.3 0.1-0.9 0.7 0.6 0.9 1.1 1.2 1.5 0-0.3 0.8-1.4 0.8-0.1l0.2-1.3c0.3-0.2 0.4 1.1 0.7 0.2 0.3-0.9 0.9-0.2 1.5-0.5-0.2 0.4-0.1 1.2 0.6 0.7l0.8-0.7c0.5 1.2 1.3 0.7 1.7 0.5 4.4-2.8 8.8-6.1 13-9.4l-0.1 1.3 0.5-1.6c0.5 0.5 0.9 0.1 1.1-0.2 0.6-1 1.4-2 2.7-2.9-1.6 4.3-3.5 7.7-5.9 10.5l-1 1.2c0 0.7-0.2 1.6-1 1.7-0.4 0.1-1.2-0.2-1.8 0.4-0.3 0.4 0.7 1.2-0.1 0.6-0.7-0.5-1.4 0-2.2 0.2-0.6 0.2 0.4 0.8 0.6 1.2 0.2 0.4 0.4 0.8 0.3 1.3l-1.1-1.2c-1.3 0.7-2.1 2-3.2 3-0.5 0.4-0.3 1.1-0.3 1.7-0.7 0-1.5-0.2-1.9 0.2-0.3 0.4-0.2 1-0.2 1.6-1-0.1-1.1-1.6-2-1.3-0.9 0.2-1.9 0.3-2.7 0.8 0.6 1.2-1 0.5-0.8 0.7-1.5-0.9-2.8-1.6-4.4-1-3.4-1.1-7.6-0.6-10.7-0.2 0-0.5 0.1-1-0.1-1.1-0.2 0.5-0.8 0.3-0.7 0.3-1.9-1.3-3.8-2.1-5.8-3.2-1.8 0.2-3.5-0.7-4-1.2-1.4-1.3-3-0.6-4.3-0.9-2.8-0.7-3.8-3.6-4.1-5.6-0.2-1-1-1.4-1.3-1.3-1.3-4.2-3.3-8-4.9-11.9-0.4-1-0.3-2-0.3-3.1 0.5 0.2 1 0.1 0.9-0.6-0.5-3.3-1.7-5.8-3-8.2 0.7-3.4 0.8-7.4 2.4-10.4 1.4-2.7 4-4.1 5.8-6.4 0.6-0.8 0.6-1.9 1.2-2.6 2-2 4-4.1 6.2-5.9 1-0.8 2.2 0 3.7-0.3 0.5-1.8 2.5-3.4 4.4-2.9 0.8 0.2 2.4-1.9 2.9-2.1 0.8-0.3 0.4 0.8 0.4 1.5 1.9-1.5 4.5-2.3 6.9-3.2" fill="#000000" fill-rule="nonzero" stroke="none" stroke-width="1" stroke-linecap="butt" stroke-linejoin="miter" stroke-miterlimit="10" stroke-dasharray="" stroke-dashoffset="0" font-family="none" font-weight="none" font-size="none" text-anchor="none" style="mix-blend-mode: normal" data-fill-palette-color="tertiary"></path></g><g transform="matrix(1,0,0,1,88.35982512480888,90)"><svg viewBox="0 0 143.28034975038224 180" height="180" width="143.28034975038224"><g><svg viewBox="0 0 143.28034975038224 180" height="180" width="143.28034975038224"><g><svg viewBox="0 0 192 241.20544136170216" height="180" width="143.28034975038224"><g transform="matrix(1,0,0,1,0,145.78902798784196)"><svg viewBox="0 0 192 95.4164133738602" height="95.4164133738602" width="192"><g id="textblocktransform"><svg viewBox="0 0 192 95.4164133738602" height="95.4164133738602" width="192" id="textblock"><g><svg viewBox="0 0 192 95.4164133738602" height="95.4164133738602" width="192"><g transform="matrix(1,0,0,1,0,0)"><svg width="192" viewBox="1.75 -32.1 65.8 32.7" height="95.4164133738602" data-palette-color="#eef0f3"><path d="M36.25 0L26.05 0 26.05-0.9 28.4-0.9Q29.1-0.9 29.1-1.5L29.1-1.5 29.1-27.05 18.65 0 16.95 0 6.5-26.3 6.5-1.6Q6.5-0.9 7.2-0.9L7.2-0.9 9.55-0.9 9.55 0 1.75 0 1.75-0.9 4.1-0.9Q4.8-0.9 4.8-1.6L4.8-1.6 4.8-30Q4.8-30.6 4.1-30.6L4.1-30.6 1.75-30.6 1.75-31.5 8.9-31.5 19.1-5.65 29.1-31.5 36.25-31.5 36.25-30.6 33.9-30.6Q33.2-30.6 33.2-29.9L33.2-29.9 33.2-1.5Q33.2-0.9 33.9-0.9L33.9-0.9 36.25-0.9 36.25 0ZM54.1-30.65L54.1-30.65Q49.55-30.65 46.77-26.65 44-22.65 44-15.7 44-8.75 46.8-4.8 49.6-0.85 53.82-0.85 58.05-0.85 59.72-3.03 61.4-5.2 61.4-9.4L61.4-9.4 61.4-11.4Q61.4-12 60.7-12L60.7-12 57.35-12 57.35-12.9 67.55-12.9 67.55-12 66.2-12Q65.5-12 65.5-11.4L65.5-11.4 65.5-9.6Q65.5-5.15 62.3-2.27 59.1 0.6 54.1 0.6L54.1 0.6Q47.8 0.6 43.77-3.75 39.75-8.1 39.75-15.73 39.75-23.35 43.72-27.73 47.7-32.1 54.1-32.1L54.1-32.1Q57.35-32.1 60.6-30.45L60.6-30.45Q61.65-29.9 62.1-29.9L62.1-29.9Q62.85-29.9 62.9-30.95L62.9-30.95 62.95-31.8 63.9-31.8 63.9-23.15 63-23.15Q62.55-27 60.12-28.83 57.7-30.65 54.1-30.65Z" opacity="1" transform="matrix(1,0,0,1,0,0)" fill="#000000" class="wordmark-text-0" data-fill-palette-color="primary" id="text-0"></path></svg></g></svg></g></svg></g></svg></g><g transform="matrix(1,0,0,1,61.49357706812563,0)"><svg viewBox="0 0 69.01284586374874 131.8654832826748" height="131.8654832826748" width="69.01284586374874"><g><svg xmlns="http://www.w3.org/2000/svg" xmlns:xlink="http://www.w3.org/1999/xlink" version="1.1" x="0" y="0" viewBox="0.471 0.45285637183170796 99.201 189.5471436281683" enable-background="new 0 0 100 190.153" xml:space="preserve" id="icon-0" width="69.01284586374874" height="131.8654832826748" class="icon-icon-0" data-fill-palette-color="accent"><g fill="#5a97d3" data-fill-palette-color="accent"><polygon fill="#000000" points="86.282,190.153 16.625,190.153 9.417,87.497 93.484,87.497  " data-fill-palette-color="accent"></polygon><g fill="#5a97d3" data-fill-palette-color="accent"><path fill="#000000" d="M99.672 80.529C99.672 81.92 98.397 83.058 96.837 83.058H3.305C1.746 83.058 0.471 82.033 0.471 80.779S1.688 78.119 3.176 77.653L7.766 76.217C9.254 75.751 10.471 74.095 10.471 72.536V70.518A2.84 2.84 0 0 1 13.305 67.684H86.837A2.84 2.84 0 0 1 89.672 70.518V72.536C89.672 74.095 90.905 75.695 92.413 76.091L96.931 77.279C98.438 77.676 99.672 79.139 99.672 80.529" data-fill-palette-color="accent"></path></g></g><g fill="#5a97d3" data-fill-palette-color="accent"><g fill="#5a97d3" data-fill-palette-color="accent"><path fill="#000000" d="M22.271 1.46C16.956 7.813 13.204 17.431 16.787 25.461 19.91 32.461 28.339 35.538 26.829 44.29 26.116 48.426 23.412 51.066 21.802 54.679 20.241 58.181 25.41 61.236 26.983 57.707 28.329 54.687 30.494 52.11 31.734 48.948 33.751 43.808 33.368 38.292 30.818 33.448 29.293 30.549 26.501 28.621 24.288 26.314 21.589 23.501 21.011 19.447 21.677 15.767 22.313 12.247 24.454 8.164 26.513 5.702 28.978 2.756 24.757-1.512 22.271 1.46" data-fill-palette-color="accent"></path></g></g><g fill="#5a97d3" data-fill-palette-color="accent"><g fill="#5a97d3" data-fill-palette-color="accent"><path fill="#000000" d="M45.399 1.46C40.085 7.813 36.333 17.431 39.915 25.461 43.037 32.461 51.465 35.538 49.956 44.29 49.243 48.426 46.539 51.066 44.93 54.679 43.37 58.181 48.539 61.236 50.111 57.707 51.457 54.687 53.621 52.109 54.861 48.948 56.877 43.808 56.495 38.292 53.946 33.448 52.421 30.549 49.63 28.621 47.417 26.314 44.718 23.501 44.141 19.447 44.806 15.767 45.442 12.247 47.583 8.164 49.642 5.702 52.105 2.756 47.884-1.512 45.399 1.46" data-fill-palette-color="accent"></path></g></g><g fill="#5a97d3" data-fill-palette-color="accent"><g fill="#5a97d3" data-fill-palette-color="accent"><path fill="#000000" d="M68.31 1.46C62.995 7.813 59.243 17.431 62.826 25.461 65.948 32.461 74.378 35.538 72.868 44.29 72.155 48.426 69.451 51.066 67.841 54.679 66.28 58.181 71.449 61.236 73.023 57.707 74.369 54.687 76.534 52.11 77.774 48.948 79.791 43.808 79.408 38.292 76.859 33.448 75.333 30.549 72.542 28.621 70.328 26.314 67.629 23.501 67.052 19.447 67.717 15.767 68.354 12.246 70.494 8.164 72.554 5.702 75.017 2.757 70.795-1.511 68.31 1.46" data-fill-palette-color="accent"></path></g></g></svg></g></svg></g><g></g></svg></g></svg></g></svg></g></svg></g><defs></defs></svg><rect width="320" height="360" fill="none" stroke="none" visibility="hidden"></rect></g></svg></g></svg>